<svg width="638" height="324" viewBox="0 0 638 324" fill="none" xmlns="http://www.w3.org/2000/svg">
<path d="M0 0H10.6953L49.4486 88.4722H49.7263L88.3407 0H99.036V100H89.5908V18.1944H89.313L53.4767 100H45.4204L9.72303 18.1944H9.44523V100H0V0Z" fill="#FF0037"/>
<path d="M128.541 8.61111V45.6944H170.628V54.3056H128.541V91.3889H178.962V100H119.096V0H178.962V8.61111H128.541Z" fill="#FF0037"/>
<path d="M205.588 8.61111V45.6944H247.675V54.3056H205.588V91.3889H256.009V100H196.143V0H256.009V8.61111H205.588Z" fill="#FF0037"/>
<path d="M298.469 100V8.61111H266.244V0H340V8.61111H307.914V100H298.469Z" fill="#FF0037"/>
<path d="M54 148C79.6 148 99.84 156.4 114.72 173.2C129.6 189.84 137.04 210.24 137.04 234.4C137.04 258.56 129.6 279.04 114.72 295.84C99.84 312.48 79.6 320.8 54 320.8H0V148H54ZM52.56 305.92C74.16 305.92 90.88 299.12 102.72 285.52C114.56 271.76 120.48 254.72 120.48 234.4C120.48 214.08 114.56 197.12 102.72 183.52C90.88 169.76 74.16 162.88 52.56 162.88H16.32V305.92H52.56Z" fill="#FF0037"/>
<path d="M288.377 148V257.92C288.377 278.56 282.617 294.64 271.097 306.16C259.577 317.52 244.217 323.2 225.017 323.2C205.817 323.2 190.457 317.52 178.937 306.16C167.577 294.64 161.897 278.56 161.897 257.92V148H178.217V256.24C178.217 273.52 182.297 286.48 190.457 295.12C198.777 303.6 210.297 307.84 225.017 307.84C239.417 307.84 250.857 303.68 259.337 295.36C267.817 287.04 272.057 274 272.057 256.24V148H288.377Z" fill="#FF0037"/>
<path d="M320.625 148H339.105L406.065 300.88H406.545L473.265 148H491.745V320.8H475.425V179.44H474.945L413.025 320.8H399.105L337.425 179.44H336.945V320.8H320.625V148Z" fill="#FF0037"/>
<path d="M585.926 148C598.886 148 609.926 152.24 619.046 160.72C628.166 169.04 632.726 179.68 632.726 192.64C632.726 197.28 631.926 201.76 630.326 206.08C628.886 210.4 627.206 213.92 625.286 216.64C623.366 219.36 621.206 221.84 618.806 224.08C616.566 226.32 614.806 227.84 613.526 228.64C612.406 229.44 611.526 230 610.886 230.32V230.8C611.206 230.8 612.246 231.2 614.006 232C615.766 232.8 618.006 234.32 620.726 236.56C623.606 238.64 626.246 241.28 628.646 244.48C631.206 247.52 633.366 251.68 635.126 256.96C637.046 262.08 638.006 267.68 638.006 273.76C638.006 287.04 633.126 298.24 623.366 307.36C613.606 316.32 602.006 320.8 588.566 320.8H526.406V148H585.926ZM583.046 162.88H542.726V223.36H583.046C592.806 223.36 600.646 220.64 606.566 215.2C612.486 209.6 615.446 202.08 615.446 192.64C615.446 183.2 612.486 175.92 606.566 170.8C600.646 165.52 592.806 162.88 583.046 162.88ZM584.246 237.76H542.726V305.92H584.246C595.286 305.92 604.086 302.88 610.646 296.8C617.366 290.72 620.726 282.4 620.726 271.84C620.726 261.28 617.366 252.96 610.646 246.88C604.086 240.8 595.286 237.76 584.246 237.76Z" fill="#FF0037"/>
</svg>
