<svg width="1805" height="176" viewBox="0 0 1805 176" fill="none" xmlns="http://www.w3.org/2000/svg">
<path d="M0.280029 0.199951H18.76L85.72 153.08H86.2L152.92 0.199951H171.4V173H155.08V31.6399H154.6L92.68 173H78.76L17.08 31.6399H16.6V173H0.280029V0.199951Z" fill="white"/>
<path d="M222.381 15.0799V79.16H295.101V94.04H222.381V158.12H309.501V173H206.061V0.199951H309.501V15.0799H222.381Z" fill="white"/>
<path d="M355.506 15.0799V79.16H428.226V94.04H355.506V158.12H442.626V173H339.186V0.199951H442.626V15.0799H355.506Z" fill="white"/>
<path d="M515.991 173V15.0799H460.311V0.199951H587.751V15.0799H532.311V173H515.991Z" fill="white"/>
<path d="M1220.28 0.199951C1245.88 0.199951 1266.12 8.59995 1281 25.4C1295.88 42.04 1303.32 62.4399 1303.32 86.6C1303.32 110.76 1295.88 131.24 1281 148.04C1266.12 164.68 1245.88 173 1220.28 173H1166.28V0.199951H1220.28ZM1218.84 158.12C1240.44 158.12 1257.16 151.32 1269 137.72C1280.84 123.96 1286.76 106.92 1286.76 86.6C1286.76 66.28 1280.84 49.32 1269 35.72C1257.16 21.9599 1240.44 15.0799 1218.84 15.0799H1182.6V158.12H1218.84Z" fill="white"/>
<path d="M1454.66 0.199951V110.12C1454.66 130.76 1448.9 146.84 1437.38 158.36C1425.86 169.72 1410.5 175.4 1391.3 175.4C1372.1 175.4 1356.74 169.72 1345.22 158.36C1333.86 146.84 1328.18 130.76 1328.18 110.12V0.199951H1344.5V108.44C1344.5 125.72 1348.58 138.68 1356.74 147.32C1365.06 155.8 1376.58 160.04 1391.3 160.04C1405.7 160.04 1417.14 155.88 1425.62 147.56C1434.1 139.24 1438.34 126.2 1438.34 108.44V0.199951H1454.66Z" fill="white"/>
<path d="M1486.91 0.199951H1505.39L1572.35 153.08H1572.83L1639.55 0.199951H1658.03V173H1641.71V31.6399H1641.22L1579.31 173H1565.39L1503.71 31.6399H1503.22V173H1486.91V0.199951Z" fill="white"/>
<path d="M1752.21 0.199951C1765.17 0.199951 1776.21 4.43995 1785.33 12.9199C1794.45 21.24 1799.01 31.88 1799.01 44.84C1799.01 49.48 1798.21 53.96 1796.61 58.28C1795.17 62.5999 1793.49 66.1199 1791.57 68.84C1789.65 71.5599 1787.49 74.04 1785.09 76.28C1782.85 78.52 1781.09 80.04 1779.81 80.84C1778.69 81.64 1777.81 82.2 1777.17 82.52V83C1777.49 83 1778.53 83.4 1780.29 84.2C1782.05 85 1784.29 86.52 1787.01 88.76C1789.89 90.84 1792.53 93.48 1794.93 96.68C1797.49 99.72 1799.65 103.88 1801.41 109.16C1803.33 114.28 1804.29 119.88 1804.29 125.96C1804.29 139.24 1799.41 150.44 1789.65 159.56C1779.89 168.52 1768.29 173 1754.85 173H1692.69V0.199951H1752.21ZM1749.33 15.0799H1709.01V75.56H1749.33C1759.09 75.56 1766.93 72.8399 1772.85 67.3999C1778.77 61.7999 1781.73 54.28 1781.73 44.84C1781.73 35.3999 1778.77 28.1199 1772.85 23C1766.93 17.7199 1759.09 15.0799 1749.33 15.0799ZM1750.53 89.96H1709.01V158.12H1750.53C1761.57 158.12 1770.37 155.08 1776.93 149C1783.65 142.92 1787.01 134.6 1787.01 124.04C1787.01 113.48 1783.65 105.16 1776.93 99.0799C1770.37 93 1761.57 89.96 1750.53 89.96Z" fill="white"/>
</svg>
