<svg width="1905" height="178" viewBox="0 0 1905 178" fill="none" xmlns="http://www.w3.org/2000/svg">
<path d="M0 5.2002H18.48L85.44 158.08H85.92L152.64 5.2002H171.12V178H154.8V36.6402H154.32L92.4 178H78.48L16.8 36.6402H16.32V178H0V5.2002Z" fill="white"/>
<path d="M222.101 20.0802V84.1602H294.821V99.0402H222.101V163.12H309.221V178H205.781V5.2002H309.221V20.0802H222.101Z" fill="white"/>
<path d="M355.226 20.0802V84.1602H427.946V99.0402H355.226V163.12H442.346V178H338.906V5.2002H442.346V20.0802H355.226Z" fill="white"/>
<path d="M515.711 178V20.0802H460.031V5.2002H587.471V20.0802H532.031V178H515.711Z" fill="white"/>
<path d="M1169.72 2.4H1188.2L1255.16 155.28H1255.64L1322.36 2.4H1340.84V175.2H1324.52V33.84H1324.04L1262.12 175.2H1248.2L1186.52 33.84H1186.04V175.2H1169.72V2.4Z" fill="white"/>
<path d="M1506.45 151.92C1491.25 169.04 1471.09 177.6 1445.97 177.6C1420.85 177.6 1400.61 169.04 1385.25 151.92C1369.89 134.8 1362.21 113.76 1362.21 88.8C1362.21 63.84 1369.89 42.8 1385.25 25.68C1400.61 8.56 1420.85 0 1445.97 0C1470.93 0 1491.09 8.64 1506.45 25.92C1521.81 43.2 1529.49 64.16 1529.49 88.8C1529.49 113.76 1521.81 134.8 1506.45 151.92ZM1445.97 162.24C1466.13 162.24 1482.21 155.2 1494.21 141.12C1506.21 127.04 1512.21 109.6 1512.21 88.8C1512.21 68.16 1506.13 50.8 1493.97 36.72C1481.81 22.48 1465.81 15.36 1445.97 15.36C1426.13 15.36 1410.05 22.48 1397.73 36.72C1385.57 50.8 1379.49 68.16 1379.49 88.8C1379.49 109.44 1385.57 126.88 1397.73 141.12C1410.05 155.2 1426.13 162.24 1445.97 162.24Z" fill="white"/>
<path d="M1657.23 160.32V175.2H1556.91V2.4H1573.23V160.32H1657.23Z" fill="white"/>
<path d="M1786.13 160.32V175.2H1685.81V2.4H1702.13V160.32H1786.13Z" fill="white"/>
<path d="M1904.36 2.4L1842.92 109.44V175.2H1826.6V109.44L1765.4 2.4H1784.6L1835.24 97.92H1835.72L1886.12 2.4H1904.36Z" fill="white"/>
</svg>
