<svg width="735" height="325" viewBox="0 0 735 325" fill="none" xmlns="http://www.w3.org/2000/svg">
<path d="M0 0H10.6953L49.4486 88.4722H49.7263L88.3407 0H99.036V100H89.5908V18.1944H89.313L53.4767 100H45.4204L9.72303 18.1944H9.44523V100H0V0Z" fill="#FF0037"/>
<path d="M128.541 8.61111V45.6944H170.628V54.3056H128.541V91.3889H178.962V100H119.096V0H178.962V8.61111H128.541Z" fill="#FF0037"/>
<path d="M205.588 8.61111V45.6944H247.675V54.3056H205.588V91.3889H256.009V100H196.143V0H256.009V8.61111H205.588Z" fill="#FF0037"/>
<path d="M298.469 100V8.61111H266.244V0H340V8.61111H307.914V100H298.469Z" fill="#FF0037"/>
<path d="M0 149.4H18.48L85.44 302.28H85.92L152.64 149.4H171.12V322.2H154.8V180.84H154.32L92.4 322.2H78.48L16.8 180.84H16.32V322.2H0V149.4Z" fill="#FF0037"/>
<path d="M336.728 298.92C321.528 316.04 301.367 324.6 276.247 324.6C251.127 324.6 230.887 316.04 215.527 298.92C200.167 281.8 192.488 260.76 192.488 235.8C192.488 210.84 200.167 189.8 215.527 172.68C230.887 155.56 251.127 147 276.247 147C301.208 147 321.368 155.64 336.728 172.92C352.088 190.2 359.768 211.16 359.768 235.8C359.768 260.76 352.088 281.8 336.728 298.92ZM276.247 309.24C296.407 309.24 312.487 302.2 324.487 288.12C336.487 274.04 342.488 256.6 342.488 235.8C342.488 215.16 336.408 197.8 324.247 183.72C312.088 169.48 296.087 162.36 276.247 162.36C256.407 162.36 240.328 169.48 228.008 183.72C215.848 197.8 209.768 215.16 209.768 235.8C209.768 256.44 215.848 273.88 228.008 288.12C240.328 302.2 256.407 309.24 276.247 309.24Z" fill="#FF0037"/>
<path d="M487.508 307.32V322.2H387.188V149.4H403.508V307.32H487.508Z" fill="#FF0037"/>
<path d="M616.414 307.32V322.2H516.094V149.4H532.414V307.32H616.414Z" fill="#FF0037"/>
<path d="M734.638 149.4L673.198 256.44V322.2H656.878V256.44L595.678 149.4H614.878L665.518 244.92H665.998L716.398 149.4H734.638Z" fill="#FF0037"/>
</svg>
